#!OML:ASF C:\ViconDB\ViconDB\414\Spring2016\041811\Spring2016.ASF
:FULLY-SPECIFIED
:DEGREES
170
root 9.92684 17.8689 -7.48794 -180.575 1.67705 -175.61
lowerback 4.0884 2.65123 2.66999
upperback 2.89044 3.79441 1.46726
thorax 0.751514 1.99903 -0.111082
lowerneck -9.67213 -4.52597 -11.4077
upperneck 13.149 -7.04052 14.3643
head 6.48405 -3.14626 5.90173
rclavicle -3.40729e-014 -1.25483e-014
rhumerus -29.755 -0.164216 -85.5377
rradius 42.9283
rwrist 27.6208
rhand -34.8879 -14.9455
rfingers 7.12502
rthumb -8.03656 -44.7727
lclavicle -3.40729e-014 -1.25483e-014
lhumerus -44.1534 -2.00317 88.2572
lradius 27.5925
lwrist -31.0027
lhand -24.5859 15.1039
lfingers 7.12502
lthumb 1.91152 45.0751
rfemur 20.2271 -13.5919 24.1171
rtibia 2.8625e-014
rfoot -158.97 13.1794
rtoes -11.7794
lfemur -32.8733 -4.31428 -7.34766
ltibia 30.0894
lfoot -9.54683 5.26177
ltoes -7.98962
171
root 9.92263 17.8536 -7.65683 -180.721 1.80023 -175.632
lowerback 4.23364 2.73496 2.51681
upperback 3.02328 3.91267 1.41671
thorax 0.802927 2.06175 -0.0847152
lowerneck -9.72237 -4.53746 -11.4982
upperneck 12.9372 -7.03108 14.5327
head 6.43535 -3.13218 5.9715
rclavicle 2.33883e-014 2.4376e-014
rhumerus -29.5043 -0.549628 -85.3781
rradius 43.0952
rwrist 27.7966
rhand -35.0925 -15.0263
rfingers 7.12502
rthumb -8.23404 -44.8458
lclavicle 2.33883e-014 2.4376e-014
lhumerus -44.185 -2.38257 88.5037
lradius 28.0551
lwrist -30.0937
lhand -24.5324 15.3135
lfingers 7.12502
lthumb 1.96314 45.2842
rfemur 21.0176 -13.309 23.967
rtibia 2.8625e-014
rfoot -159.176 13.2232
rtoes -12.1973
lfemur -32.8861 -5.1859 -7.01661
ltibia 29.7935
lfoot -9.65719 5.77247
ltoes -7.53489
172
root 9.91221 17.8078 -7.82834 -180.778 1.91338 -175.563
lowerback 4.38706 2.84646 2.45232
upperback 2.99607 4.06293 1.34468
thorax 0.693342 2.13443 -0.137406
lowerneck -9.64872 -4.62093 -11.1384
upperneck 12.9053 -7.14495 14.1916
head 6.403 -3.1929 5.78316
rclavicle 1.0666e-014 5.46658e-015
rhumerus -29.5407 -0.249909 -85.4369
rradius 43.1635
rwrist 27.2044
rhand -35.4879 -15.1075
rfingers 7.12502
rthumb -8.61565 -44.9117
lclavicle 1.0666e-014 5.46658e-015
lhumerus -44.4718 -2.75253 88.6204
lradius 28.6528
lwrist -28.9378
lhand -24.3264 15.3839
lfingers 7.12502
lthumb 2.1621 45.3527
rfemur 21.754 -13.0271 23.9223
rtibia -1.90833e-014
rfoot -159.147 13.1752
rtoes -11.0036
lfemur -32.9206 -5.15091 -7.01312
ltibia 29.6773
lfoot -9.49335 5.85023
ltoes -7.96637
173
root 9.90092 17.7887 -8.00042 -180.896 2.1397 -175.587
lowerback 4.52736 2.95832 2.26477
upperback 3.10011 4.21741 1.36173
thorax 0.710523 2.21364 -0.0259235
lowerneck -9.61628 -4.67343 -11.5022
upperneck 12.7148 -7.17613 14.4572
head 6.3655 -3.20826 5.92996
rclavicle -3.77877e-014 -6.06293e-015
rhumerus -29.3789 -0.256055 -85.2491
rradius 43.1745
rwrist 27.3158
rhand -35.5898 -15.3461
rfingers 7.12502
rthumb -8.71398 -45.1462
lclavicle -3.77877e-014 -6.06293e-015
lhumerus -44.4474 -2.49833 88.639
lradius 28.9763
lwrist -28.9754
lhand -24.1484 15.2993
lfingers 7.12502
lthumb 2.33408 45.2663
rfemur 22.5241 -12.634 23.7735
rtibia -4.77083e-014
rfoot -159.233 12.991
rtoes -10.4117
lfemur -32.7628 -5.2176 -7.07076
ltibia 29.7485
lfoot -9.82843 6.21867
ltoes -8.08157
174
root 9.89085 17.7771 -8.17632 -180.882 2.5113 -175.625
lowerback 4.57405 3.14027 2.04882
upperback 3.09312 4.45015 1.28879
thorax 0.670809 2.3256 0.00756146
lowerneck -9.59054 -4.72443 -11.2419
upperneck 12.6667 -7.23847 14.2161
head 6.33632 -3.24058 5.79731
rclavicle -1.922e-014 -5.96354e-015
rhumerus -29.4156 -0.567701 -85.1626
rradius 43.2995
rwrist 27.2503
rhand -35.876 -15.4257
rfingers 7.12502
rthumb -8.99017 -45.2142
lclavicle -1.922e-014 -5.96354e-015
lhumerus -44.6975 -2.82746 88.8283
lradius 29.4896
lwrist -28.3039
lhand -24.3477 15.484
lfingers 7.12502
lthumb 2.1416 45.453
rfemur 23.1443 -12.0868 23.647
rtibia 3.18055e-015
rfoot -159.196 12.7422
rtoes -10.3236
lfemur -32.637 -4.75666 -7.2451
ltibia 29.925
lfoot -9.95951 6.36232
ltoes -8.27326
175
root 9.8714 17.7634 -8.3586 -180.905 2.87001 -175.513
lowerback 4.68109 3.27774 2.08052
upperback 3.07462 4.63592 1.20244
thorax 0.60486 2.4182 -0.112538
lowerneck -9.6598 -4.74946 -11.1782
upperneck 12.732 -7.32046 14.3571
head 6.38333 -3.2695 5.82483
rclavicle -3.2228e-014 3.97569e-015
rhumerus -29.5074 -0.756996 -85.234
rradius 43.2866
rwrist 27.2952
rhand -36.0014 -15.3847
rfingers 7.12502
rthumb -9.11111 -45.1679
lclavicle -3.2228e-014 3.97569e-015
lhumerus -44.7342 -2.86299 88.6788
lradius 29.7979
lwrist -27.9277
lhand -24.3842 15.166
lfingers 7.12502
lthumb 2.1063 45.1353
rfemur 23.8215 -11.5542 23.6546
rtibia -6.36111e-015
rfoot -159.17 12.3986
rtoes -10.1562
lfemur -32.3318 -4.0835 -7.39751
ltibia 30.1038
lfoot -10.0104 6.34692
ltoes -8.49426
